<mxfile host="Electron" modified="2023-09-10T19:47:06.102Z" agent="Mozilla/5.0 (Windows NT 10.0; Win64; x64) AppleWebKit/537.36 (KHTML, like Gecko) draw.io/21.6.8 Chrome/114.0.5735.289 Electron/25.5.0 Safari/537.36" etag="tjRS7z8oU0M4qMnBLfDw" version="21.6.8" type="device">
  <diagram name="Página-1" id="EhvBsJ3G_l8nSXyIs8So">
    <mxGraphModel dx="1418" dy="827" grid="1" gridSize="10" guides="1" tooltips="1" connect="1" arrows="1" fold="1" page="1" pageScale="1" pageWidth="827" pageHeight="1169" math="0" shadow="0">
      <root>
        <mxCell id="0" />
        <mxCell id="1" parent="0" />
        <mxCell id="14H7G3SA7-IAmhS1AY-Y-1" value="Sistema" style="verticalAlign=top;align=left;spacingTop=8;spacingLeft=2;spacingRight=12;shape=cube;size=10;direction=south;fontStyle=4;html=1;whiteSpace=wrap;" parent="1" vertex="1">
          <mxGeometry x="210" y="20" width="520" height="520" as="geometry" />
        </mxCell>
        <mxCell id="14H7G3SA7-IAmhS1AY-Y-2" value="Paciente" style="shape=umlActor;verticalLabelPosition=bottom;verticalAlign=top;html=1;" parent="1" vertex="1">
          <mxGeometry x="100" y="210" width="50" height="90" as="geometry" />
        </mxCell>
        <mxCell id="14H7G3SA7-IAmhS1AY-Y-3" value="Presiona opción editar ficha personal" style="ellipse;whiteSpace=wrap;html=1;" parent="1" vertex="1">
          <mxGeometry x="300" y="120" width="120" height="80" as="geometry" />
        </mxCell>
        <mxCell id="14H7G3SA7-IAmhS1AY-Y-4" value="Editar ficha personal" style="rounded=0;whiteSpace=wrap;html=1;" parent="1" vertex="1">
          <mxGeometry x="380" y="40" width="180" height="20" as="geometry" />
        </mxCell>
        <mxCell id="14H7G3SA7-IAmhS1AY-Y-12" value="Despliega los campos correspondientes para que el usuario edite" style="ellipse;whiteSpace=wrap;html=1;" parent="1" vertex="1">
          <mxGeometry x="520" y="115" width="140" height="90" as="geometry" />
        </mxCell>
        <mxCell id="14H7G3SA7-IAmhS1AY-Y-14" value="Completar ficha" style="ellipse;whiteSpace=wrap;html=1;" parent="1" vertex="1">
          <mxGeometry x="300" y="250" width="120" height="80" as="geometry" />
        </mxCell>
        <mxCell id="14H7G3SA7-IAmhS1AY-Y-16" value="Guardar ficha" style="ellipse;whiteSpace=wrap;html=1;" parent="1" vertex="1">
          <mxGeometry x="300" y="390" width="120" height="80" as="geometry" />
        </mxCell>
        <mxCell id="14H7G3SA7-IAmhS1AY-Y-18" value="Almacenar registros del usuario" style="ellipse;whiteSpace=wrap;html=1;" parent="1" vertex="1">
          <mxGeometry x="530" y="390" width="120" height="80" as="geometry" />
        </mxCell>
        <mxCell id="RR2teM3_GHG8A4_4BciR-1" value="" style="endArrow=none;html=1;rounded=0;exitX=0.5;exitY=0.5;exitDx=0;exitDy=0;exitPerimeter=0;entryX=0;entryY=0.5;entryDx=0;entryDy=0;" parent="1" source="14H7G3SA7-IAmhS1AY-Y-2" target="14H7G3SA7-IAmhS1AY-Y-3" edge="1">
          <mxGeometry width="50" height="50" relative="1" as="geometry">
            <mxPoint x="170" y="280" as="sourcePoint" />
            <mxPoint x="220" y="230" as="targetPoint" />
          </mxGeometry>
        </mxCell>
        <mxCell id="RR2teM3_GHG8A4_4BciR-2" value="Include" style="endArrow=open;endSize=12;dashed=1;html=1;rounded=0;exitX=0.5;exitY=1;exitDx=0;exitDy=0;entryX=0.5;entryY=0;entryDx=0;entryDy=0;" parent="1" source="14H7G3SA7-IAmhS1AY-Y-3" target="14H7G3SA7-IAmhS1AY-Y-14" edge="1">
          <mxGeometry width="160" relative="1" as="geometry">
            <mxPoint x="400" y="192" as="sourcePoint" />
            <mxPoint x="473" y="318" as="targetPoint" />
          </mxGeometry>
        </mxCell>
        <mxCell id="RR2teM3_GHG8A4_4BciR-3" value="Include" style="endArrow=open;endSize=12;dashed=1;html=1;rounded=0;exitX=0.5;exitY=1;exitDx=0;exitDy=0;entryX=0.5;entryY=0;entryDx=0;entryDy=0;" parent="1" source="14H7G3SA7-IAmhS1AY-Y-14" target="14H7G3SA7-IAmhS1AY-Y-16" edge="1">
          <mxGeometry width="160" relative="1" as="geometry">
            <mxPoint x="440" y="330" as="sourcePoint" />
            <mxPoint x="440" y="380" as="targetPoint" />
          </mxGeometry>
        </mxCell>
        <mxCell id="RR2teM3_GHG8A4_4BciR-4" value="Extends" style="endArrow=block;endSize=16;endFill=0;html=1;rounded=0;entryX=1;entryY=0.5;entryDx=0;entryDy=0;exitX=0;exitY=0.5;exitDx=0;exitDy=0;" parent="1" source="14H7G3SA7-IAmhS1AY-Y-12" target="14H7G3SA7-IAmhS1AY-Y-3" edge="1">
          <mxGeometry width="160" relative="1" as="geometry">
            <mxPoint x="536" y="190" as="sourcePoint" />
            <mxPoint x="430" y="190" as="targetPoint" />
          </mxGeometry>
        </mxCell>
        <mxCell id="RR2teM3_GHG8A4_4BciR-5" value="Extends" style="endArrow=block;endSize=16;endFill=0;html=1;rounded=0;entryX=1;entryY=0.5;entryDx=0;entryDy=0;exitX=0;exitY=0.5;exitDx=0;exitDy=0;" parent="1" source="14H7G3SA7-IAmhS1AY-Y-18" target="14H7G3SA7-IAmhS1AY-Y-16" edge="1">
          <mxGeometry width="160" relative="1" as="geometry">
            <mxPoint x="530" y="420" as="sourcePoint" />
            <mxPoint x="430" y="420" as="targetPoint" />
          </mxGeometry>
        </mxCell>
      </root>
    </mxGraphModel>
  </diagram>
</mxfile>
